<svg width="50" height="45" viewBox="0 0 50 45" fill="none" xmlns="http://www.w3.org/2000/svg">
<path d="M49.5 27.8C49.4 27.6 49.3 27.4 49 27.3C48.8 27.2 48.6 27.1 48.3 27.1C47.6 27 47.2 26.8 47.3 25.9C47.3 24.8 47.1 23.7 46.6 22.8C46.1 21.8 45.4 21 44.5 20.4C42.5 19.1 40.2 18.3 37.8 18.3C36 18.1 34.2 17.9 32.4 17.6C33.3 17.1 34.1 16.7 34.8 16.2C37.1 14.9 39.1 13.2 40.8 11.2C41.6 10.2 42.1 8.99999 42.3 7.69999C42.5 6.39999 42.3 5.09999 41.7 3.89999C40.4 1.39999 38.1 0.799986 35.6 0.899986C33.7 0.899986 31.8 1.39999 30 2.19999C25.9 4.19999 22.1 6.59999 18.7 9.49999C17.3 10.6 15.9 11.8 14.4 13C14.6 12 14.8 11.2 14.9 10.3C15.4 7.69999 15.1 4.99999 13.8 2.59999C13.5 2.09999 13.2 1.59999 12.7 1.29999C12.2 0.899985 11.7 0.699986 11.2 0.599986C11 0.499986 10.8 0.599986 10.6 0.599986C10.4 0.699986 10.2 0.799986 10.1 1.09999C9.89996 1.29999 9.90001 1.49999 9.90001 1.79999C9.90001 1.99999 9.89996 2.29999 10.1 2.49999C10.3 2.79999 10.6 3.09999 10.9 3.39999C11.4 3.79999 11.8 4.39999 12.1 4.99999C12.4 5.59999 12.5 6.29999 12.5 6.89999C12.7 10.5 11.3 13.6 9.99999 16.8C9.89999 17 9.69999 17.2 9.49999 17.4C8.29999 18.6 6.99998 19.7 5.79997 21C3.69998 23.4 1.59999 25.7 0.499987 28.8C-1.28448e-05 30.3 -0.100025 31.8 0.299975 33.3C0.699975 34.8 1.49996 36.2 2.59996 37.2C2.99996 37.5 3.49999 37.7 3.99999 37.7C4.49999 37.7 5.00001 37.5 5.40001 37.1C6.10001 36.4 6.59999 35.5 6.99999 34.6C11.7 24.8 18 16 25.8 8.39999C28 6.09999 30.9 4.59999 34 3.99999C35.8 3.69999 37.9 5.69999 38 7.29999C38.1 9.59999 36.9 11.1 35.4 12.4C33.2 14.3 30.6 15.9 27.9 17C26.5 17.6 25.2 18.4 24 19.3C23.4 19.8 22.9 20.4 22.7 21.2C22.5 21.9 22.4 22.7 22.6 23.5C22.8 24.2 23.1 24.7 23.7 25.1C24.2 25.5 24.9 25.7 25.5 25.7C29 25.9 32.6 26 36.1 26.3C37.6 26.4 39.1 26.4 40.2 27.7C40.2 27.8 40.1 27.8 40 27.9C39.9 27.9 39.8 28 39.8 28C32.4 29.3 25.3 31.5 18.4 34.5C17 35.1 15.8 36 14.7 37.1C12.9 39 12.8 41.9 15.5 43.4C18.5 45.1 21.6 44.8 24.8 44.3C30.5 43.4 35.5 40.8 40.3 37.5C42.8 35.8 44.8 33.5 46.3 30.9C46.7 30.2 47.1 29.8 48 29.9C48.3 30 48.5 30 48.8 29.9C49 29.8 49.3 29.7 49.5 29.4C49.6 29.2 49.7 29 49.8 28.8C49.7 28.2 49.6 28 49.5 27.8ZM40.9 30.9C40.5 32.2 39.7 33.4 38.6 34.2C34.3 37.7 29.5 40.4 24.1 41.3C23.4 41.4 22.8 41.4 22.1 41.5C21.4 41.5 20.6 41.5 19.9 41.2C19.6 41.1 19.4 41 19.2 40.8C19 40.6 18.8 40.4 18.7 40.1C18.6 39.8 18.5 39.5 18.6 39.3C18.6 39 18.7 38.7 18.8 38.5C19.1 37.8 19.6 37.2 20.3 36.8C23.4 34.8 26.8 33.9 30.2 32.8C33.4 31.8 36.7 30.9 40.1 30.3C41 29.9 41.1 30.2 40.9 30.9Z" fill="white"/>
</svg>
